<?xml version="1.0" standalone="no"?>
<!DOCTYPE svg PUBLIC "-//W3C//DTD SVG 20010904//EN"
 "http://www.w3.org/TR/2001/REC-SVG-20010904/DTD/svg10.dtd">
<svg version="1.0" xmlns="http://www.w3.org/2000/svg"
 width="512.000000pt" height="512.000000pt" viewBox="0 0 512.000000 512.000000"
 preserveAspectRatio="xMidYMid meet">
<metadata>
Created by potrace 1.11, written by Peter Selinger 2001-2013
</metadata>
<g transform="translate(0.000000,512.000000) scale(0.100000,-0.100000)"
fill="#000000" stroke="none">
<path d="M3168 4835 c-168 -45 -322 -88 -342 -95 -81 -26 -135 -104 -136 -193
0 -49 1033 -3932 1067 -4010 24 -55 85 -104 147 -118 51 -11 62 -9 397 81 189
51 355 98 369 105 61 32 110 112 110 180 0 28 -1017 3855 -1061 3993 -26 79
-115 142 -199 141 -25 0 -183 -38 -352 -84z"/>
<path d="M361 4895 c-61 -19 -118 -78 -137 -140 -12 -44 -14 -325 -12 -2110
l3 -2060 22 -40 c27 -50 58 -80 105 -100 31 -13 96 -15 408 -15 345 0 373 1
408 19 48 25 87 66 106 113 14 33 16 258 16 2107 l0 2069 -28 53 c-20 39 -41
62 -77 84 l-48 30 -361 2 c-286 2 -370 -1 -405 -12z"/>
<path d="M1641 4895 c-61 -19 -118 -78 -137 -140 -12 -44 -14 -325 -12 -2110
l3 -2060 22 -40 c27 -50 58 -80 105 -100 31 -13 96 -15 408 -15 345 0 373 1
408 19 48 25 87 66 106 113 14 33 16 258 16 2107 l0 2069 -28 53 c-20 39 -41
62 -77 84 l-48 30 -361 2 c-286 2 -370 -1 -405 -12z"/>
</g>
</svg>
